# xmcd
#
# Track frame offsets: 
#        150
#        21884
#        48578
#        69435
#        92632
#        118358
#        141506
#        161784
#        184333
#        209655
#
# Disc length: 3047 seconds
#
# Revision: 0
# Processed by: cddbd v1.5.2PL0 Copyright (c) Steve Scherf et al.
# Submitted via: ExactAudioCopy v1.0b3
#
DISCID=9e0be50a
DTITLE=Truong Vu, VA - Nhung Chuyen Tinh Trong Mua
DYEAR=2000
DGENRE=
TTITLE0=Truong Vu - Mua rung
TTITLE1=Truong Vu, Hong Truc - Mua qua pho vang
TTITLE2=Truong Vu - Chuyen mua may
TTITLE3=Phi Nhung - Hai mua mua
TTITLE4=Truong Vu - Em ve keo mua
TTITLE5=Truong Vu - Doan cuoi dem mua
TTITLE6=Hong Truc - Chuyen ba mua mua
TTITLE7=Truong Vu - Gio nui mua rung
TTITLE8=Truong Vu - Mot lan cuoi
TTITLE9=Chung Tu Luu - Mua le
EXTD=
EXTT0=
EXTT1=
EXTT2=
EXTT3=
EXTT4=
EXTT5=
EXTT6=
EXTT7=
EXTT8=
EXTT9=
PLAYORDER=
